<svg version="1.2" xmlns="http://www.w3.org/2000/svg" viewBox="0 0 2000 965" width="2000" height="965"><style>*{border-radius:0.375rem}.a{fill:#fff72e}</style><path  d="m0-267h2000v1500h-2000z"/><path class="a" d="m250 288h1498.2v391.2h-1498.2z"/><path fill-rule="evenodd" d="m464.9 405.9v-23.1h65.7v23.1h-17.2v179.4h-34.2l-94.3-168v145h20.9v23h-65.8v-23h18.7v-156.4h-19.3v-23.4h54.6l92.5 166.3 1.1-6.4v-136.5zm209.3 113.4h-99.8q0 5.9 0.9 10.8 0.8 4.9 2.4 9.3 5 13.3 15.9 20.1 10.9 6.7 24.7 6.7 10.8 0 21-3 10.2-3 21.5-9.4l10 17q-13.6 9.3-27.4 13.9-13.8 4.5-28.6 4.5-14.1 0-26-4.7-12-4.6-20.6-13.9-8.7-9.2-13.5-22.9-4.9-13.8-4.9-32.1 0-14.8 4.1-28 4.2-13.2 12.4-23 8.2-9.8 20.4-15.6 12.2-5.7 28.4-5.7 15.6 0 26.1 4.7 10.5 4.8 17.1 12.6 6.6 7.8 10.1 17.8 3.4 10.1 4.7 20.5 0.6 5 0.9 10.2 0.2 5.3 0.2 10.2zm-60.9-55.2q-8.7 0-15.1 2.5-6.6 2.5-11.1 7.1-4.6 4.6-7.3 11.3-2.7 6.7-4.1 14.9h71.9q-0.6-7.7-2.5-14.2-2-6.6-6-11.4-4-4.8-10.3-7.5-6.3-2.7-15.5-2.7zm93.6-63.7v-23h44.9v184.9h20.9v23h-65.8v-23h20.1v-161.9zm89 0v-23h45v184.9h20.8v23h-65.8v-23h20.1v-161.9zm199.8 37.4q0-11.7-4.3-17.7-4.3-5.8-9.4-8.9-5.2-3.2-11.3-4.9-6.2-1.7-12.4-1.7-10.1 0-17.7 2.4-7.6 2.4-12.7 6.4-5 3.9-7.5 9.3-2.5 5.3-2.5 11.2 0 8.8 3.1 14.3 3.1 5.4 7.9 8.7 4.9 3.2 10.7 5.1 5.8 1.9 11.1 3.7l27 8.8q12.3 3.9 21.5 8.9 9.3 4.9 15.6 11.7 6.3 6.7 9.5 15.5 3.3 8.8 3.3 20.5 0 12.5-5.1 23.3-5.2 10.6-14.4 18.5-9.2 7.9-22 12.4-12.7 4.5-28 4.5-15.6 0-26.8-3.6-11-3.5-18.6-9.5-7.5-5.9-12.1-13.5-4.5-7.6-7.1-15.7h-10.1v-23h33.6q0 14.9 3.2 21 3.1 6.2 8.7 10.2 5.7 4.1 13.4 6.2 7.8 2 17.1 2 9.1 0 16.4-2.1 7.3-2.1 12.5-6.2 5.1-4.1 7.8-9.9 2.8-5.8 2.8-13.1 0-8.2-3.4-13.9-3.4-5.7-8.8-9.7-5.3-4-11.7-6.5-6.4-2.6-12.2-4.4l-29.3-8.3q-9.6-2.9-17.6-7.5-7.9-4.5-13.6-11.1-5.7-6.6-8.8-15.3-3.1-8.7-3.1-20.2 0-11.7 4.6-21.8 4.5-10.2 13.3-17.8 8.9-7.6 21.7-12 12.7-4.3 29.2-4.3 10.8 0 20 2.6 9.1 2.5 16.6 7.1 7.4 4.6 13 11.1 5.7 6.5 9.6 14.2h10.1v23zm54-37.4v-23h43.8v84.7h0.8q3.7-3.7 8.7-7 4.8-3.3 10.1-5.7 5.4-2.4 11.2-3.7 5.7-1.4 12-1.4 11.1 0 20.1 3.1 8.9 3.1 15.2 9.4 6.3 6.3 9.7 16.1 3.4 9.8 3.4 23.2v66.2h20.9v23h-65.8v-23h19v-63.2q0-15.8-8.1-24.1-8.1-8.2-23.2-8.2-8.6 0-17.4 4.1-8.8 4-16.6 10.2v81.2h20.1v23h-65.9v-23h20.9v-161.9zm260.6 184.9v-12.8q-7.9 7.4-17.4 12-9.6 4.7-21.8 4.7-10.1 0-18.6-3.2-8.5-3.2-14.7-8.8-6.1-5.5-9.5-12.8-3.4-7.4-3.4-15.7 0-8.8 2.6-15.6 2.6-6.8 6.9-11.9 4.4-4.9 10.2-8.3 5.8-3.5 12.2-5.6 6.3-2 12.9-2.9 6.7-0.8 12.6-0.8 9.7 0 16.3 0.6 6.5 0.6 11.8 1.6l0.2-11.3q0-7.4-2.2-12.8-2.1-5.4-6-9-3.8-3.5-9.3-5.2-5.4-1.8-12.1-1.8-6.3 0-12 0.9-5.8 0.9-10.8 2.3-5 1.4-9.2 3.2-4.2 1.8-7.1 3.8l-8.2-17.2q4.9-3.3 10.8-6 5.9-2.7 12.4-4.7 6.5-1.9 13.2-3.1 6.8-1.1 13.3-1.1 12.1 0 21.7 2.9 9.6 2.9 16.3 8.9 6.7 6 10.3 15.3 3.6 9.3 3.6 22.2l-0.1 69.2h15.4v23zm-33.8-16.9q5 0 10-1.2 4.9-1.2 9.3-3.3 4.5-2.1 8.2-4.8 3.7-2.8 6.3-5.7l0.1-31.3h-28.9q-7.2 0-13.2 1.7-5.9 1.5-10.3 4.6-4.3 3.1-6.7 7.6-2.4 4.6-2.4 10.5 0 5.4 2 9.5 2 4.1 5.7 6.8 3.7 2.8 8.7 4.1 5.1 1.5 11.2 1.5zm201.7-122.3v30h-25.4v-8.5q-4.4 0-9 1.7-4.6 1.6-8.6 5-4.1 3.5-7 8.7-3.1 5.3-4.4 12.5v66.8h23.5v23h-68.7v-23h19.1l0.2-92.4h-19.3v-23h44.2v19.1q2.5-4.3 5.5-7.9 3-3.7 6.7-6.5 3.6-2.7 8.1-4.3 4.5-1.5 9.7-1.5 7 0 13.1 0 6.2 0 12.3 0.3zm27.7-45.7v-23h48.8v23h-0.3v103.4h24.1l32.9-33.9h-8.3v-23h52.5v23h-17.4l-42.2 43.4 46 49h16.7v23h-29.2l-56.7-61.8h-18.4v38.8h11.5v23h-59.2v-23h22.7v-161.9z"/></svg>